<svg width="32" height="32" viewBox="0 0 32 32" fill="none" xmlns="http://www.w3.org/2000/svg">
<path fill-rule="evenodd" clip-rule="evenodd" d="M29 16L20.7933 23.5698L28.3115 29.734L27.1032 31L18.5495 23.9868L18.5495 16.8451L11.7568 16.8451C11.6261 18.6467 11.0153 20.4322 9.88523 21.8394C8.58109 23.4634 6.60017 24.5568 4.00001 24.5568L4.00001 22.8666C5.98099 22.8666 7.43592 22.0585 8.42234 20.8302C9.42822 19.5777 9.95989 17.8633 9.95989 16.1056C9.95989 14.348 9.42821 12.6336 8.42233 11.3811C7.43591 10.1528 5.98098 9.34469 4 9.34469L4 7.65446C6.60016 7.65446 8.58108 8.74791 9.88523 10.3719C10.9711 11.724 11.5775 13.4255 11.7392 15.1549L18.5495 15.1549L18.5495 8.01321L27.1032 1L28.3115 2.26598L20.7933 8.4302L29 16ZM20.3732 10.4273L20.3732 21.5727L26.4147 16L20.3732 10.4273Z" fill="#0F1523"/>
</svg>
